<?xml version="1.0" standalone="no"?><!DOCTYPE svg PUBLIC "-//W3C//DTD SVG 1.1//EN" "http://www.w3.org/Graphics/SVG/1.1/DTD/svg11.dtd"><svg t="1536332637852" class="icon" style="" viewBox="0 0 1024 1024" version="1.1" xmlns="http://www.w3.org/2000/svg" p-id="988" xmlns:xlink="http://www.w3.org/1999/xlink" width="48" height="48"><defs><style type="text/css"></style></defs><path d="M813.812907 828.826855l-31.770588 0 0 0L241.960751 828.826855l-0.004093 0-31.766494 0c-35.092239 0-63.541175-28.369118-63.541175-63.365166L146.648988 337.743234c0-34.996049 28.448936-63.365166 63.541175-63.365166l31.766494 0 0.004093 0 0 0 103.249549 0 39.709397-63.365166c0-8.749268 22.99983-15.84078 31.774681-15.84078l190.614315 0c8.769734 0 31.770588 7.091512 31.770588 15.84078l39.712467 63.365166 103.250572 0 31.770588 0c35.092239 0 63.537082 28.369118 63.537082 63.365166l0 427.718455C877.349989 800.457738 848.905146 828.826855 813.812907 828.826855L813.812907 828.826855zM512.001023 337.743234c-114.046453 0-206.504214 92.201935-206.504214 205.940372 0 113.739461 92.457762 205.936279 206.504214 205.936279 114.043383 0 206.496028-92.196819 206.500121-205.928093l0-0.016373C718.497051 429.941076 626.044406 337.743234 512.001023 337.743234L512.001023 337.743234zM512.001023 686.254719c-78.958306 0-142.963039-63.828724-142.963039-142.571113 0-78.738295 64.004733-142.571113 142.963039-142.571113 78.955236 0 142.963039 63.832817 142.963039 142.571113C654.964062 622.425995 590.95626 686.254719 512.001023 686.254719L512.001023 686.254719zM512.001023 686.254719" p-id="989"></path></svg>